<?xml version="1.0" encoding="utf-8"?>
<svg xmlns="http://www.w3.org/2000/svg" viewBox="138.273 119.091 129 129" width="129px" height="129px">
  <rect width="128" height="128" rx="24" fill="#09090B" x="138.773" y="119.591" style="stroke-width: 1px;"/>
  <path d="M 162.773 119.091 L 242.773 119.091 C 249.503 119.113 255.691 121.861 260.097 126.267 C 264.503 130.673 267.251 136.862 267.273 143.591 L 267.273 223.591 C 267.251 230.321 264.503 236.509 260.097 240.915 C 255.691 245.321 249.502 248.069 242.773 248.091 L 162.773 248.091 C 156.043 248.069 149.855 245.321 145.449 240.915 C 141.043 236.509 138.295 230.32 138.273 223.591 L 138.273 143.591 C 138.295 136.861 141.043 130.673 145.449 126.267 C 149.855 121.861 156.044 119.113 162.773 119.091 Z M 146.156 126.974 C 141.876 131.254 139.251 137.066 139.273 143.591 L 139.273 223.591 C 139.251 230.116 141.876 235.928 146.156 240.208 C 150.436 244.488 156.248 247.113 162.773 247.091 L 242.773 247.091 C 249.298 247.113 255.11 244.488 259.39 240.208 C 263.67 235.928 266.295 230.116 266.273 223.591 L 266.273 143.591 C 266.295 137.066 263.67 131.254 259.39 126.974 C 255.11 122.694 249.298 120.069 242.773 120.091 L 162.773 120.091 C 156.248 120.069 150.436 122.694 146.156 126.974 Z" style="fill: none;"/>
  <text x="202.773" y="201.591" text-anchor="middle" font-size="80" font-weight="normal" font-family="'Cambria Math', 'Palatino Linotype', Palatino, serif" font-style="italic" fill="#E4E4E7" style="white-space: pre; stroke-width: 1px;">δ</text>
  <line x1="154.773" y1="231.591" x2="250.773" y2="231.591" stroke-opacity="0.15" stroke-width="3" stroke-linecap="round" style="stroke-width: 3px;"/>
  <path d="M 153.273 231.591 C 153.273 230.763 153.945 230.091 154.773 230.091 L 250.773 230.091 C 251.601 230.091 252.273 230.763 252.273 231.591 C 252.273 232.419 251.601 233.091 250.773 233.091 L 154.773 233.091 C 153.945 233.091 153.273 232.419 153.273 231.591 Z" style="fill: rgb(228, 228, 231);"/>
  <line x1="202.773" y1="231.591" x2="202.773" y2="216.591" stroke-width="3" stroke-linecap="round" style="stroke-width: 3px;"/>
  <path d="M 202.773 233.091 C 201.945 233.091 201.273 232.419 201.273 231.591 L 201.273 216.591 C 201.273 215.763 201.945 215.091 202.773 215.091 C 203.601 215.091 204.273 215.763 204.273 216.591 L 204.273 231.591 C 204.273 232.419 203.601 233.091 202.773 233.091 Z" style="fill: rgb(245, 158, 11);"/>
  <circle cx="202.773" cy="211.591" r="4" fill="#F59E0B" style="stroke-width: 1px;"/>
  <path d="M 207.273 211.591 C 207.273 212.798 206.742 213.986 205.955 214.773 C 205.168 215.56 203.98 216.091 202.773 216.091 C 201.566 216.091 200.378 215.56 199.591 214.773 C 198.804 213.986 198.273 212.798 198.273 211.591 C 198.273 210.384 198.804 209.196 199.591 208.409 C 200.378 207.622 201.566 207.091 202.773 207.091 C 203.98 207.091 205.168 207.622 205.955 208.409 C 206.742 209.196 207.273 210.384 207.273 211.591 Z M 205.248 209.116 C 204.587 208.455 203.776 208.091 202.773 208.091 C 201.771 208.091 200.959 208.455 200.298 209.116 C 199.637 209.777 199.273 210.588 199.273 211.591 C 199.273 212.593 199.637 213.405 200.298 214.066 C 200.959 214.727 201.77 215.091 202.773 215.091 C 203.775 215.091 204.587 214.727 205.248 214.066 C 205.909 213.405 206.273 212.594 206.273 211.591 C 206.273 210.589 205.909 209.777 205.248 209.116 Z" style="fill: none;"/>
</svg>
